<mxfile host="Electron" modified="2023-04-30T12:19:44.701Z" agent="Mozilla/5.0 (Windows NT 10.0; Win64; x64) AppleWebKit/537.36 (KHTML, like Gecko) draw.io/21.1.2 Chrome/106.0.5249.199 Electron/21.4.3 Safari/537.36" etag="nQymV7Q6lM1TMSqsEzcz" version="21.1.2" type="device">
  <diagram name="Page-1" id="bg3ucGJu7S6vjUEBu8IU">
    <mxGraphModel dx="1036" dy="702" grid="1" gridSize="10" guides="1" tooltips="1" connect="1" arrows="1" fold="1" page="1" pageScale="1" pageWidth="850" pageHeight="1100" math="0" shadow="0">
      <root>
        <mxCell id="0" />
        <mxCell id="1" parent="0" />
        <mxCell id="rdJd-Jw4QhEiDGAX6347-10" value="" style="rounded=0;whiteSpace=wrap;html=1;strokeColor=none;" parent="1" vertex="1">
          <mxGeometry x="40" y="40" width="760" height="640" as="geometry" />
        </mxCell>
        <mxCell id="rdJd-Jw4QhEiDGAX6347-3" value="" style="rounded=1;whiteSpace=wrap;html=1;" parent="1" vertex="1">
          <mxGeometry x="82" y="160" width="685" height="480" as="geometry" />
        </mxCell>
        <mxCell id="rdJd-Jw4QhEiDGAX6347-4" value="MCU" style="rounded=1;whiteSpace=wrap;html=1;fillColor=#ffe6cc;strokeColor=#d79b00;" parent="1" vertex="1">
          <mxGeometry x="365" y="360" width="120" height="60" as="geometry" />
        </mxCell>
        <mxCell id="rdJd-Jw4QhEiDGAX6347-5" value="ADC" style="rounded=1;whiteSpace=wrap;html=1;fillColor=#d5e8d4;strokeColor=#82b366;" parent="1" vertex="1">
          <mxGeometry x="289.5" y="550" width="120" height="60" as="geometry" />
        </mxCell>
        <mxCell id="rdJd-Jw4QhEiDGAX6347-6" value="RELAY" style="rounded=1;whiteSpace=wrap;html=1;fillColor=#dae8fc;strokeColor=#6c8ebf;" parent="1" vertex="1">
          <mxGeometry x="439.5" y="550" width="120" height="60" as="geometry" />
        </mxCell>
        <mxCell id="rdJd-Jw4QhEiDGAX6347-7" value="POWER" style="rounded=1;whiteSpace=wrap;html=1;fillColor=#f8cecc;strokeColor=#b85450;" parent="1" vertex="1">
          <mxGeometry x="110" y="360" width="120" height="60" as="geometry" />
        </mxCell>
        <mxCell id="rdJd-Jw4QhEiDGAX6347-8" value="GSM" style="rounded=1;whiteSpace=wrap;html=1;fillColor=#fff2cc;strokeColor=#d6b656;" parent="1" vertex="1">
          <mxGeometry x="590" y="360" width="120" height="60" as="geometry" />
        </mxCell>
        <mxCell id="rdJd-Jw4QhEiDGAX6347-11" value="&lt;h1&gt;Kontrol Kartı&lt;/h1&gt;&lt;p&gt;Kontrol Kartı blok diyagramı.&lt;/p&gt;" style="text;html=1;strokeColor=none;fillColor=none;spacing=5;spacingTop=-20;whiteSpace=wrap;overflow=hidden;rounded=0;" parent="1" vertex="1">
          <mxGeometry x="50" y="50" width="710" height="120" as="geometry" />
        </mxCell>
        <mxCell id="f6HfP_6K1WziMT_Ij4ei-2" value="BUTTON&lt;br&gt;(ACTIVATED)" style="rounded=1;whiteSpace=wrap;html=1;fillColor=#dae8fc;strokeColor=#6c8ebf;" vertex="1" parent="1">
          <mxGeometry x="140" y="190" width="120" height="60" as="geometry" />
        </mxCell>
        <mxCell id="f6HfP_6K1WziMT_Ij4ei-3" value="BUTTON&lt;br&gt;(DEACTIVATED)" style="rounded=1;whiteSpace=wrap;html=1;fillColor=#f8cecc;strokeColor=#b85450;" vertex="1" parent="1">
          <mxGeometry x="270" y="190" width="120" height="60" as="geometry" />
        </mxCell>
        <mxCell id="f6HfP_6K1WziMT_Ij4ei-5" value="LED&lt;br&gt;(PWR)" style="ellipse;whiteSpace=wrap;html=1;aspect=fixed;fillColor=#d5e8d4;strokeColor=#82b366;" vertex="1" parent="1">
          <mxGeometry x="409.5" y="195" width="50" height="50" as="geometry" />
        </mxCell>
        <mxCell id="f6HfP_6K1WziMT_Ij4ei-6" value="LED&lt;br&gt;(ACT)" style="ellipse;whiteSpace=wrap;html=1;aspect=fixed;fillColor=#d5e8d4;strokeColor=#82b366;" vertex="1" parent="1">
          <mxGeometry x="474.5" y="195" width="50" height="50" as="geometry" />
        </mxCell>
        <mxCell id="f6HfP_6K1WziMT_Ij4ei-7" value="LED&lt;br&gt;(DEACT)" style="ellipse;whiteSpace=wrap;html=1;aspect=fixed;fillColor=#fff2cc;strokeColor=#d6b656;" vertex="1" parent="1">
          <mxGeometry x="540" y="195" width="50" height="50" as="geometry" />
        </mxCell>
        <mxCell id="f6HfP_6K1WziMT_Ij4ei-8" value="LED&lt;br&gt;(ERR)" style="ellipse;whiteSpace=wrap;html=1;aspect=fixed;fillColor=#f8cecc;strokeColor=#b85450;" vertex="1" parent="1">
          <mxGeometry x="610" y="195" width="50" height="50" as="geometry" />
        </mxCell>
      </root>
    </mxGraphModel>
  </diagram>
</mxfile>
